<?xml version="1.0" encoding="UTF-8" standalone="no"?>
<!-- Created with Inkscape (http://www.inkscape.org/) -->

<svg
   width="166.69978mm"
   height="28.750725mm"
   viewBox="0 0 166.69978 28.750725"
   version="1.1"
   id="svg303"
   xml:space="preserve"
   inkscape:version="1.2.2 (732a01da63, 2022-12-09)"
   sodipodi:docname="logo for website design.svg"
   inkscape:export-filename="..\..\Downloads\logo.png"
   inkscape:export-xdpi="96"
   inkscape:export-ydpi="96"
   xmlns:inkscape="http://www.inkscape.org/namespaces/inkscape"
   xmlns:sodipodi="http://sodipodi.sourceforge.net/DTD/sodipodi-0.dtd"
   xmlns="http://www.w3.org/2000/svg"
   xmlns:svg="http://www.w3.org/2000/svg"><sodipodi:namedview
     id="namedview305"
     pagecolor="#505050"
     bordercolor="#eeeeee"
     borderopacity="1"
     inkscape:showpageshadow="0"
     inkscape:pageopacity="0"
     inkscape:pagecheckerboard="0"
     inkscape:deskcolor="#505050"
     inkscape:document-units="mm"
     showgrid="false"
     inkscape:zoom="0.36925855"
     inkscape:cx="885.55837"
     inkscape:cy="446.84138"
     inkscape:window-width="1920"
     inkscape:window-height="1009"
     inkscape:window-x="1912"
     inkscape:window-y="-8"
     inkscape:window-maximized="1"
     inkscape:current-layer="layer1"
     showguides="true" /><defs
     id="defs300" /><g
     inkscape:label="Layer 1"
     inkscape:groupmode="layer"
     id="layer1"
     transform="translate(-36.324487,-95.883016)"><g
       id="g327"
       style="fill:#f9f9f9"
       inkscape:export-filename="g327.svg"
       inkscape:export-xdpi="96"
       inkscape:export-ydpi="96"><path
         id="rect500"
         style="fill:#f9f9f9;fill-opacity:1;stroke-width:0.239715"
         d="m 38.564658,95.883012 c -1.241127,0 -2.240173,0.99956 -2.240173,2.24069 v 24.269868 c 0,1.24113 0.999046,2.24017 2.240173,2.24017 h 10.262423 l 4.202844,-28.750728 z m 8.440828,2.39778 h 0.657325 v 2.964158 c -1.041795,0 -1.723928,0.11989 -2.046387,0.35967 -0.330729,0.23151 -0.496094,0.71107 -0.496094,1.43867 0,2.37298 -0.152962,4.0225 -0.458887,4.94855 -0.305923,0.93431 -0.926043,1.67019 -1.860351,2.20763 1.01699,0.60358 1.661915,1.38494 1.934765,2.34405 0.264583,0.95911 0.396875,2.55903 0.396875,4.79971 0,0.77722 0.152963,1.26918 0.458887,1.47588 0.305924,0.21497 0.996324,0.32247 2.071192,0.32247 v 2.97656 h -0.657325 c -1.438668,0 -2.52181,-0.18605 -3.249414,-0.55811 -0.727602,-0.3638 -1.219564,-0.90123 -1.475879,-1.6123 -0.256313,-0.7028 -0.384472,-1.90584 -0.384472,-3.60908 0,-1.31465 -0.07028,-2.26136 -0.21084,-2.84014 -0.14056,-0.57052 -0.40101,-1.00873 -0.781348,-1.31466 -0.388605,-0.29764 -0.963249,-0.46301 -1.723926,-0.49608 v -2.97659 c 0.752409,-0.0413 1.318783,-0.2067 1.699122,-0.49609 0.380337,-0.28939 0.644922,-0.72347 0.79375,-1.30225 0.148826,-0.57878 0.223242,-1.53377 0.223242,-2.86496 0,-1.92649 0.140561,-3.17913 0.421679,-3.75791 0.272852,-0.57877 0.731739,-1.058328 1.376661,-1.438668 0.636652,-0.38034 1.740465,-0.57051 3.311425,-0.57051 z" /><path
         id="path611"
         style="fill:#f9f9f9;fill-opacity:1;stroke-width:0.239715"
         d="m 55.142457,95.883017 -4.203361,28.750723 h 14.411523 c 1.241125,0 2.240691,-0.99905 2.240691,-2.24018 V 98.123707 c 0,-1.24113 -0.999566,-2.24069 -2.240691,-2.24069 z m 1.119312,2.48719 h 0.657324 c 1.438667,0 2.521813,0.18603 3.249414,0.5581 0.727601,0.3638 1.219564,0.90125 1.475879,1.612303 0.256314,0.70279 0.384472,1.90582 0.384472,3.60908 0,1.31464 0.07028,2.26136 0.21084,2.84013 0.14056,0.57051 0.40101,1.00873 0.781348,1.31467 0.388605,0.29765 0.963251,0.46303 1.723926,0.49608 v 2.97658 c -0.752407,0.0413 -1.318785,0.2067 -1.699121,0.49609 -0.380338,0.28939 -0.644923,0.72347 -0.79375,1.30225 -0.148828,0.57877 -0.223243,1.53376 -0.223243,2.86494 0,1.92649 -0.140561,3.17913 -0.421679,3.75791 -0.272851,0.57878 -0.731741,1.05833 -1.37666,1.43867 -0.636653,0.38034 -1.740468,0.57051 -3.311426,0.57051 h -0.657324 v -2.96416 c 1.041793,0 1.723928,-0.11989 2.046386,-0.35967 0.330729,-0.23151 0.496094,-0.71107 0.496094,-1.43867 0,-2.37298 0.152963,-4.0225 0.458887,-4.94854 0.305923,-0.93429 0.926043,-1.67019 1.860351,-2.20762 -1.01699,-0.60359 -1.661915,-1.38493 -1.934765,-2.34406 -0.264583,-0.9591 -0.396875,-2.55903 -0.396875,-4.7997 0,-0.77722 -0.152963,-1.26918 -0.458887,-1.47588 -0.305924,-0.21498 -0.996326,-0.32246 -2.071191,-0.32246 z" /></g><path
       d="m 78.357005,103.66636 q 1.947927,0 3.257189,0.92606 1.309262,0.89413 1.915993,2.52273 0.638664,1.59666 0.638664,3.70425 0,2.5866 -1.021863,4.37486 -1.021863,1.75633 -2.714323,2.61852 -1.660527,0.86219 -3.704253,0.86219 -1.277329,0 -2.746258,-0.3832 v 5.90765 h -3.448787 v -20.05406 l 3.448787,-0.35126 v 1.24539 q 1.08573,-0.6706 2.203392,-1.02186 1.117663,-0.35127 2.171459,-0.35127 z m -2.075658,12.3901 q 1.947926,0 3.097522,-1.30927 1.181529,-1.30926 1.181529,-3.89586 0,-2.33112 -0.830265,-3.35298 -0.798329,-1.05379 -2.458857,-1.05379 -1.564728,0 -3.289122,0.98992 v 8.30264 q 1.213463,0.31934 2.299193,0.31934 z"
       style="font-weight:500;font-size:25.4px;font-family:Dubai;-inkscape-font-specification:'Dubai Medium';fill:#f9f9f9;fill-opacity:1;stroke-width:0.332637"
       id="path769" /><path
       d="m 93.333699,118.67497 q -2.299192,0 -3.863919,-0.98992 -1.564728,-1.02187 -2.363059,-2.71432 -0.766397,-1.7244 -0.766397,-3.83199 0,-2.65046 0.989929,-4.31099 1.021864,-1.66053 2.714324,-2.39499 1.692461,-0.7664 3.800053,-0.7664 2.331125,0 3.895853,0.98994 1.564727,0.95799 2.331127,2.65046 0.79833,1.69245 0.79833,3.86391 0,2.61852 -1.021864,4.31098 -0.989931,1.66053 -2.682391,2.42693 -1.692461,0.76639 -3.831986,0.76639 z m 0.255465,-2.68239 q 1.97986,0 2.810124,-1.27732 0.862196,-1.30926 0.862196,-3.57652 0,-2.26727 -0.89413,-3.51266 -0.862196,-1.27733 -2.68239,-1.27733 -2.011793,0 -2.905923,1.2454 -0.862196,1.24539 -0.862196,3.54459 0,2.23533 0.894129,3.54458 0.926064,1.30926 2.77819,1.30926 z"
       style="font-weight:500;font-size:25.4px;font-family:Dubai;-inkscape-font-specification:'Dubai Medium';fill:#f9f9f9;fill-opacity:1;stroke-width:0.332637"
       id="path771" /><path
       d="m 105.72377,101.55877 q -0.60674,0 -1.1496,-0.28739 -0.51093,-0.31934 -0.83027,-0.83027 -0.31932,-0.542872 -0.31932,-1.149595 0,-0.606734 0.31932,-1.117665 0.31934,-0.542866 0.83027,-0.862198 0.54286,-0.319331 1.1496,-0.319331 0.63866,0 1.18152,0.319331 0.54287,0.319332 0.8622,0.862198 0.31934,0.510931 0.31934,1.117665 0,0.606723 -0.31934,1.149595 -0.31933,0.51093 -0.8622,0.83027 -0.54286,0.28739 -1.18152,0.28739 z m -3.03365,23.05579 q -1.59667,0 -3.161397,-0.63867 l 0.830267,-2.49079 q 1.05379,0.35126 1.78825,0.35126 0.95801,0 1.40507,-0.54286 0.479,-0.54287 0.479,-1.66053 v -15.51954 l 3.44878,-0.3832 v 15.74308 q 0,2.55465 -1.27733,3.83198 -1.27732,1.30927 -3.51264,1.30927 z"
       style="font-weight:500;font-size:25.4px;font-family:Dubai;-inkscape-font-specification:'Dubai Medium';fill:#f9f9f9;fill-opacity:1;stroke-width:0.332637"
       id="path773" /><path
       d="m 117.63487,118.67497 q -2.29919,0 -3.86392,-0.98992 -1.56473,-1.02187 -2.36306,-2.71432 -0.7664,-1.7244 -0.7664,-3.83199 0,-2.65046 0.98993,-4.31099 1.02187,-1.66053 2.71433,-2.39499 1.69246,-0.7664 3.80005,-0.7664 2.33112,0 3.89585,0.98994 1.56473,0.95799 2.33113,2.65046 0.79833,1.69245 0.79833,3.86391 0,2.61852 -1.02186,4.31098 -0.98993,1.66053 -2.68239,2.42693 -1.69246,0.76639 -3.83199,0.76639 z m 0.25547,-2.68239 q 1.97985,0 2.81012,-1.27732 0.8622,-1.30926 0.8622,-3.57652 0,-2.26727 -0.89413,-3.51266 -0.8622,-1.27733 -2.68239,-1.27733 -2.0118,0 -2.90593,1.2454 -0.8622,1.24539 -0.8622,3.54459 0,2.23533 0.89413,3.54458 0.92607,1.30926 2.7782,1.30926 z"
       style="font-weight:500;font-size:25.4px;font-family:Dubai;-inkscape-font-specification:'Dubai Medium';fill:#f9f9f9;fill-opacity:1;stroke-width:0.332637"
       id="path775" /><path
       d="m 135.54938,110.65973 5.84378,7.37658 v 0.22353 h -4.11938 l -5.49252,-7.24884 v 7.24884 h -3.44879 V 96.28979 l 3.44879,-0.351266 v 14.593486 l 5.58831,-6.41858 h 3.73619 v 0.1916 z"
       style="font-weight:500;font-size:25.4px;font-family:Dubai;-inkscape-font-specification:'Dubai Medium';fill:#f9f9f9;fill-opacity:1;stroke-width:0.332637"
       id="path777" /><path
       d="m 149.63194,118.67497 q -3.03365,0 -4.94965,-1.66052 -1.88405,-1.69246 -1.88405,-5.49252 0,-2.68239 1.05379,-4.43871 1.0538,-1.78826 2.71432,-2.58659 1.66053,-0.83027 3.51266,-0.83027 1.18152,0 2.26725,0.31934 1.08574,0.28739 2.36307,0.95799 l -1.2454,2.42693 q -1.0538,-0.51093 -1.82019,-0.70253 -0.7664,-0.22353 -1.56473,-0.22353 -1.7244,0 -2.71433,1.30925 -0.98992,1.30926 -0.98992,3.73619 0,4.34292 3.67232,4.34292 0.98992,0 1.82019,-0.31933 0.8622,-0.31933 1.85212,-0.89413 l 1.27733,2.33113 q -1.21345,0.76639 -2.52272,1.24539 -1.30926,0.47899 -2.84206,0.47899 z"
       style="font-weight:500;font-size:25.4px;font-family:Dubai;-inkscape-font-specification:'Dubai Medium';fill:#86d248;fill-opacity:1;stroke-width:0.332637"
       id="path779" /><path
       d="m 163.52291,118.67497 q -2.29918,0 -3.86391,-0.98992 -1.56473,-1.02187 -2.36305,-2.71432 -0.76641,-1.7244 -0.76641,-3.83199 0,-2.65046 0.98994,-4.31099 1.02185,-1.66053 2.71432,-2.39499 1.69245,-0.7664 3.80005,-0.7664 2.33112,0 3.89585,0.98994 1.56473,0.95799 2.33112,2.65046 0.79834,1.69245 0.79834,3.86391 0,2.61852 -1.02187,4.31098 -0.98993,1.66053 -2.68239,2.42693 -1.69246,0.76639 -3.83199,0.76639 z m 0.25547,-2.68239 q 1.97986,0 2.81013,-1.27732 0.8622,-1.30926 0.8622,-3.57652 0,-2.26727 -0.89413,-3.51266 -0.8622,-1.27733 -2.6824,-1.27733 -2.01179,0 -2.90592,1.2454 -0.8622,1.24539 -0.8622,3.54459 0,2.23533 0.89413,3.54458 0.92606,1.30926 2.77819,1.30926 z"
       style="font-weight:500;font-size:25.4px;font-family:Dubai;-inkscape-font-specification:'Dubai Medium';fill:#86d248;fill-opacity:1;stroke-width:0.332637"
       id="path781" /><path
       d="m 186.80221,95.938524 v 22.321316 h -3.03366 l -0.22353,-1.05379 q -2.26726,1.46892 -4.43871,1.46892 -2.87399,0 -4.40679,-1.85212 -1.50086,-1.88406 -1.50086,-5.30092 0,-2.58658 0.98993,-4.34291 1.02186,-1.78826 2.68239,-2.65046 1.66053,-0.8622 3.67232,-0.8622 1.34119,0 2.81012,0.41513 v -7.7917 z M 176.80711,111.49 q 0,4.43872 3.22526,4.43872 1.59666,0 3.32105,-1.02187 v -8.27069 q -1.11767,-0.3832 -2.39499,-0.3832 -1.21347,0 -2.17146,0.57479 -0.92606,0.5748 -1.46892,1.75633 -0.51094,1.18152 -0.51094,2.90592 z"
       style="font-weight:500;font-size:25.4px;font-family:Dubai;-inkscape-font-specification:'Dubai Medium';fill:#86d248;fill-opacity:1;stroke-width:0.332637"
       id="path783" /><path
       d="m 203.02427,109.73367 q 0,0.98994 -0.0958,2.13953 h -9.5161 q 0.12774,2.10759 1.18152,3.09753 1.08573,0.98992 2.68239,0.98992 1.14961,0 2.07567,-0.28739 0.92606,-0.31934 2.10759,-0.98994 l 1.21346,2.23532 q -1.1496,0.79834 -2.58659,1.27734 -1.40506,0.47899 -3.06559,0.47899 -2.04372,0 -3.64038,-0.73446 -1.56473,-0.73446 -2.49079,-2.36306 -0.92607,-1.62859 -0.92607,-4.21518 0,-2.23532 0.79833,-3.95972 0.79833,-1.75633 2.36306,-2.74625 1.56473,-0.98994 3.76812,-0.98994 1.97986,0 3.35299,0.79834 1.37313,0.76639 2.07566,2.17146 0.70253,1.37312 0.70253,3.09751 z m -6.09924,-3.57652 q -1.40506,0 -2.23533,0.8622 -0.83026,0.8622 -1.11766,2.45886 h 6.13117 v -0.0958 q 0,-1.66054 -0.76639,-2.42693 -0.73446,-0.79833 -2.01179,-0.79833 z"
       style="font-weight:500;font-size:25.4px;font-family:Dubai;-inkscape-font-specification:'Dubai Medium';fill:#86d248;fill-opacity:1;stroke-width:0.332637"
       id="path785" /><path
       id="rect849"
       style="fill:#86d248;fill-opacity:1;stroke-width:0.332637"
       d="m 105.72407,96.992522 c -0.40448,0 -0.78803,0.106114 -1.14994,0.318992 -0.34062,0.212884 -0.6174,0.500221 -0.83029,0.862135 -0.21289,0.340616 -0.31899,0.713607 -0.31899,1.118104 0,0.404479 0.10611,0.787377 0.31899,1.149277 0.21289,0.34063 0.48967,0.6174 0.83029,0.8303 0.36191,0.1916 0.74546,0.28716 1.14994,0.28716 0.42578,0 0.81922,-0.0955 1.18112,-0.28716 0.36192,-0.2129 0.64925,-0.48967 0.86214,-0.8303 0.21289,-0.3619 0.31964,-0.744798 0.31964,-1.149277 0,-0.404497 -0.10676,-0.777488 -0.31964,-1.118104 -0.21289,-0.361914 -0.50022,-0.649251 -0.86214,-0.862135 -0.3619,-0.212883 -0.75534,-0.318992 -1.18112,-0.318992 z" /></g></svg>
